<svg preserveAspectRatio="none" width="100%" height="100%" overflow="visible" style="display: block;" viewBox="0 0 1980 159.707" fill="none" xmlns="http://www.w3.org/2000/svg">
<path id="Union" d="M1153.34 0.0623618C1166.81 -0.300328 1177.76 0.741836 1189.47 7.94908C1197.65 12.9839 1215.61 28.2499 1209.29 38.6835C1207.92 39.954 1201.1 43.5255 1200.17 41.6219C1190.67 22.343 1179.72 9.49105 1156.1 11.7196C1141.22 13.1233 1131.29 21.2259 1131.38 36.8436C1132.79 52.6459 1157.71 61.821 1170.27 69.0506C1187.87 79.1485 1213.64 90.5734 1215.78 113.604C1217.29 129.645 1208.97 146.462 1194.12 153.291C1185.04 157.465 1178.58 158.434 1168.74 159.457C1155.58 159.925 1141.25 160.462 1129.42 153.738C1120.73 148.803 1101.93 133.388 1108.29 122.246C1110.93 119.338 1114.29 118.923 1118.12 117.982C1127.32 135.845 1137.29 149.109 1159.77 150.585C1172.46 151.418 1191.72 142.316 1191.46 127.941C1191 101.733 1152.55 92.3159 1134.46 80.1493C1126.33 74.6815 1120.71 69.7297 1113.68 62.7889C1103.51 29.286 1117.01 3.0056 1153.34 0.0623618ZM1285.26 0.0291587C1300.58 0.131803 1308.81 0.412786 1322.48 8.36119C1330.67 13.1294 1353.78 38.7301 1333.57 41.8924C1326.98 39.396 1321.75 22.5876 1313.85 17.3661C1284.3 -2.15726 1235.99 30.8048 1278.84 56.577C1309.97 75.2976 1371.91 95.4424 1338.09 142.991C1329.49 155.101 1315.45 157.625 1301.92 159.44C1283.92 159.862 1267.02 160.848 1252.15 148.108C1244.78 141.789 1233.32 128.519 1241.87 118.864C1253.08 116.055 1255.36 131.931 1261.39 137.381C1283.44 157.328 1312.13 155.77 1324.15 127.527C1315.45 100.171 1293.62 97.3369 1270.82 82.5653C1261.44 76.489 1255.67 71.5065 1247.7 66.2733C1229.59 32.3398 1248.61 3.12514 1285.26 0.0291587ZM1746.78 1.97252C1789.91 0.168891 1826.42 33.4624 1828.56 76.5428C1830.7 119.622 1797.66 156.361 1754.56 158.827C1711 161.32 1673.74 127.867 1671.58 84.3153C1669.42 40.7648 1703.19 3.79602 1746.78 1.97252ZM1854.05 3.70396C1884.89 3.61926 1940.18 -3.52882 1956.47 28.8485C1960.44 36.7335 1960.34 50.3441 1957.02 58.534C1951.35 72.5659 1938.28 78.4497 1925.4 83.9911C1932.2 95.7048 1971.43 149.093 1980 157.256C1968.26 156.905 1952.97 160.968 1944.02 152.832C1932.24 134.543 1908.85 103.755 1894.18 86.3192C1892.14 83.9063 1881.38 86.4767 1877.73 87.2538C1877.59 110.66 1877.57 134.066 1877.66 157.473L1854.18 157.208C1853.49 106.517 1854.02 54.5064 1854.05 3.70396ZM1021.48 2.71764C1026.8 2.67868 1033.07 1.70453 1035.67 7.0731C1040.95 17.969 1045.2 29.2919 1049.99 40.4129L1080.81 111.752C1087.09 126.501 1093.37 143.292 1100.68 157.325C1092.31 157.27 1083.43 157.572 1075.03 157.711C1067.72 145.8 1058.59 121.981 1053.11 108.483C1046.86 108.133 1039.61 108.154 1033.27 108.017C1018.64 107.85 1003.99 108.004 989.36 108.477C983.536 123.037 973.306 142.53 966.48 157.287C962.762 157.29 957.855 157.668 954.646 156.082C954.053 153.879 1015.76 14.2133 1021.48 2.71764ZM534.451 2.87681C538.523 2.79997 543.086 2.37795 546.756 4.04185C551.241 8.99947 608.459 144.562 612.639 157.488C607.71 157.34 590.776 158.405 588.69 156.442C582.23 150.36 569.371 116.515 566.396 108.325L547.941 108.008C532.877 107.89 517.813 108.029 502.755 108.421C498.049 116.941 494.615 123.863 491.176 133.025C488.475 140.222 480.933 163.106 470.209 155.992C467.658 147.429 507.876 65.1928 513.383 50.1883C516.834 40.7909 529.376 12.8021 534.451 2.87681ZM1524.72 3.80846C1558.94 3.56446 1607.22 0.105368 1633.73 25.4442C1664.92 55.2646 1663.31 104.288 1634.21 134.902C1603.64 161.766 1563.08 157.236 1524.79 157.408C1524.22 106.526 1524.7 54.7403 1524.72 3.80846ZM303.44 3.80064C318.022 3.74916 389.624 1.90513 399.327 4.61412C401.082 7.39763 402.113 12.5216 400.553 15.5155C397.432 17.1002 338.665 16.5487 330.196 16.5721C330.491 33.502 330.293 51.0548 330.334 68.037C344.079 68.9908 371.158 67.1374 382.217 68.8778C383.871 71.4039 383.522 77.3894 383.579 80.702C365.78 80.3972 347.977 80.3838 330.178 80.662L330.258 102.458L330.394 145.176C352.383 143.998 375.275 144.603 397.195 144.88C400.807 144.925 401.469 152.282 399.858 155.588C393.447 158.643 317.791 157.227 303.407 157.369L303.44 3.80064ZM1425.25 2.5731C1429.73 2.5407 1433.07 2.34274 1437.44 3.5399C1443.85 7.34218 1481.85 105.726 1488.25 117.25C1490.93 122.078 1502.87 151.539 1504.71 157.389C1499.31 157.439 1482.06 158.202 1479.77 155.913C1474.1 150.262 1461.14 116.024 1458.29 108.444L1441.8 108.02C1426.15 107.923 1410.48 108.035 1394.82 108.357C1387.95 119.446 1384 130.951 1379.07 142.95C1376.3 149.701 1370.05 160.449 1361.2 156.588C1360.27 139.974 1418.44 31.0158 1425.25 2.5731ZM170.419 3.70201C172.171 19.8345 171.044 53.7335 171.349 71.6151C187.23 73.1648 224.145 71.8981 241.229 71.7489C242.018 50.8988 241.327 24.9579 241.331 3.7274L267.769 3.75767C265.977 25.1343 270.565 149.904 265.923 157.371L241.504 157.435C241.213 132.942 241.598 108.708 240.904 84.1473C220.414 83.9491 191.139 83.281 171.137 84.8797L171.097 157.485C162.745 157.208 154.03 157.354 145.646 157.378C144.958 107.193 145.329 54.0436 145.645 3.85045L170.419 3.70201ZM848.886 3.67662C872.922 3.88186 913.565 -0.19904 928.091 24.8407C941.502 47.9609 930.382 64.9243 910.693 76.4579C936.676 90.0655 946.301 102.606 937.422 133.011C917.952 162.317 891.409 156.746 860.337 157.34C847.489 157.586 834.566 157.278 821.703 157.365C821.134 117.798 822.218 77.9321 821.696 38.3358C821.548 27.0614 821.455 14.9903 822.212 3.78306C831.062 3.74128 839.581 3.5905 848.886 3.67662ZM108.734 3.47056C114.858 3.10466 120.494 2.52757 124.97 6.61119C125.774 10.3572 126.218 11.7004 125.308 15.4383C123.022 16.9805 83.1359 16.6324 76.5676 16.7528C75.9703 47.5472 76.486 80.0502 76.469 110.983L76.6115 157.417L49.5188 156.98C50.659 111.604 49.7107 62.2171 49.635 16.5731C41.8227 16.4228 4.49574 17.7529 0.709193 14.5692C-0.717569 11.4006 0.351532 7.46602 0.946498 3.95885C34.2961 1.87521 74.6932 5.50453 108.734 3.47056ZM781.888 4.51256C782.248 4.92057 782.68 5.41022 783.184 5.98131C783.409 46.5526 783.551 119.788 783.037 157.121C775.934 156.456 765.611 156.508 758.262 156.328C757.143 136.723 757.863 112.359 757.808 92.4393C757.742 68.205 757.239 41.1668 759.271 17.2704C739.717 51.5556 725.29 86.8549 703.613 120.864C686.13 94.4363 664.776 54.0661 650.455 25.5077C649.035 22.8538 649.684 23.2607 647.449 21.8026C646.102 23.1561 645.833 24.7837 645.828 26.6551C645.715 70.0268 646.437 113.651 645.57 157.015C642.479 156.654 637.2 156.597 633.924 156.455C632.292 107.544 633.355 54.0435 633.413 4.75474L662.151 4.87779C669.409 11.9911 699.033 73.315 708.655 88.0155C715.067 73.9612 722.232 60.8103 729.403 47.1376C736.775 33.0792 743.646 17.8974 752.23 4.61217C761.374 4.7212 769.933 4.80939 779.097 4.42857L781.888 4.51256ZM1775.37 19.4842C1764.35 11.4744 1756.69 11.181 1744.07 11.6415C1679.89 25.9527 1690.45 157.556 1755.39 150.634C1806.7 144.415 1812.04 46.1265 1775.37 19.4842ZM904.267 93.4178C890.614 80.049 863.967 81.6994 845.763 82.2547C844.816 90.4671 845 137.599 845.749 147.419C865.71 147.772 888.379 150.429 904.934 137.683C917.671 124.456 917.713 106.585 904.267 93.4178ZM1606.41 26.8446C1591.72 12.9034 1571.15 13.6774 1551.99 14.8104C1551.76 14.8243 1551.52 14.8402 1551.29 14.8573C1548.23 25.3393 1549.46 129.111 1550.3 146.537C1571.12 147.659 1590.87 148.608 1607.91 133.551C1608.17 133.315 1608.44 133.07 1608.69 132.816C1635.09 103.318 1636.14 55.0385 1606.41 26.8446ZM1020.52 35.4559C1014.69 46.9873 997.456 83.8433 994.565 95.5926L1021.09 95.6844L1048.07 95.5438C1042.07 82.3188 1027.09 44.9074 1020.52 35.4559ZM1426.88 35.4501C1416.96 50.6704 1407.86 78.2435 1399.02 95.5731L1426.84 95.6805L1452.51 95.6678C1448.15 85.9792 1430.03 39.3425 1426.88 35.4501ZM535.392 35.5887C529.229 46.7652 511.67 83.2788 506.938 95.4881L534.408 95.6786L560.665 95.6483C559.061 91.8272 535.439 35.6282 535.392 35.5887ZM1921.83 24.1913C1913.06 15.5537 1903.07 15.0856 1891.64 15.2508C1886.92 15.2754 1882.21 15.5674 1877.52 16.1249C1877.52 24.4267 1876.33 69.7065 1879.76 75.2264C1888.88 81.8187 1911.52 72.6698 1919.99 66.9579C1926.77 60.048 1930.44 55.1894 1930.39 44.7206C1930.38 37.0136 1927.31 29.6259 1921.83 24.1913ZM896.952 22.0575C884.024 12.1794 861.844 13.1117 846.633 15.0292C844.549 31.0233 845.261 55.37 845.336 71.9344C865.117 72.3022 881.757 74.5131 899.363 64.5624C910.593 49.7876 913.047 34.3573 896.952 22.0575Z" fill="var(--fill-0, #393939)"/>
</svg>
